<mxfile host="app.diagrams.net" agent="Mozilla/5.0 (Windows NT 10.0; Win64; x64) AppleWebKit/537.36 (KHTML, like Gecko) Chrome/129.0.0.0 Safari/537.36" version="24.7.17">
  <diagram name="Page-1" id="Q_-zvlIGnUjRojdXjm6B">
    <mxGraphModel dx="2952" dy="928" grid="1" gridSize="10" guides="1" tooltips="1" connect="1" arrows="1" fold="1" page="1" pageScale="1" pageWidth="850" pageHeight="1100" math="0" shadow="0">
      <root>
        <mxCell id="0" />
        <mxCell id="1" parent="0" />
        <mxCell id="-mziDGMkS7ORlLCOw0qk-5" value="W2053187_Instructor" style="swimlane;fontStyle=0;childLayout=stackLayout;horizontal=1;startSize=30;horizontalStack=0;resizeParent=1;resizeParentMax=0;resizeLast=0;collapsible=1;marginBottom=0;whiteSpace=wrap;html=1;" vertex="1" parent="1">
          <mxGeometry x="200" y="110" width="240" height="120" as="geometry" />
        </mxCell>
        <mxCell id="-mziDGMkS7ORlLCOw0qk-6" value="W2053187_Instructor_ID (PK)" style="text;strokeColor=none;fillColor=none;align=left;verticalAlign=middle;spacingLeft=4;spacingRight=4;overflow=hidden;points=[[0,0.5],[1,0.5]];portConstraint=eastwest;rotatable=0;whiteSpace=wrap;html=1;" vertex="1" parent="-mziDGMkS7ORlLCOw0qk-5">
          <mxGeometry y="30" width="240" height="30" as="geometry" />
        </mxCell>
        <mxCell id="-mziDGMkS7ORlLCOw0qk-7" value="W2053187_Name" style="text;strokeColor=none;fillColor=none;align=left;verticalAlign=middle;spacingLeft=4;spacingRight=4;overflow=hidden;points=[[0,0.5],[1,0.5]];portConstraint=eastwest;rotatable=0;whiteSpace=wrap;html=1;" vertex="1" parent="-mziDGMkS7ORlLCOw0qk-5">
          <mxGeometry y="60" width="240" height="30" as="geometry" />
        </mxCell>
        <mxCell id="-mziDGMkS7ORlLCOw0qk-8" value="W2053187_Specialty" style="text;strokeColor=none;fillColor=none;align=left;verticalAlign=middle;spacingLeft=4;spacingRight=4;overflow=hidden;points=[[0,0.5],[1,0.5]];portConstraint=eastwest;rotatable=0;whiteSpace=wrap;html=1;" vertex="1" parent="-mziDGMkS7ORlLCOw0qk-5">
          <mxGeometry y="90" width="240" height="30" as="geometry" />
        </mxCell>
        <mxCell id="-mziDGMkS7ORlLCOw0qk-9" value="W2053187_Session" style="swimlane;fontStyle=0;childLayout=stackLayout;horizontal=1;startSize=30;horizontalStack=0;resizeParent=1;resizeParentMax=0;resizeLast=0;collapsible=1;marginBottom=0;whiteSpace=wrap;html=1;" vertex="1" parent="1">
          <mxGeometry x="200" y="300" width="240" height="180" as="geometry" />
        </mxCell>
        <mxCell id="-mziDGMkS7ORlLCOw0qk-10" value="W2053187_Session_ID (PK)" style="text;strokeColor=none;fillColor=none;align=left;verticalAlign=middle;spacingLeft=4;spacingRight=4;overflow=hidden;points=[[0,0.5],[1,0.5]];portConstraint=eastwest;rotatable=0;whiteSpace=wrap;html=1;" vertex="1" parent="-mziDGMkS7ORlLCOw0qk-9">
          <mxGeometry y="30" width="240" height="30" as="geometry" />
        </mxCell>
        <mxCell id="-mziDGMkS7ORlLCOw0qk-11" value="W2053187_Session_Type" style="text;strokeColor=none;fillColor=none;align=left;verticalAlign=middle;spacingLeft=4;spacingRight=4;overflow=hidden;points=[[0,0.5],[1,0.5]];portConstraint=eastwest;rotatable=0;whiteSpace=wrap;html=1;" vertex="1" parent="-mziDGMkS7ORlLCOw0qk-9">
          <mxGeometry y="60" width="240" height="30" as="geometry" />
        </mxCell>
        <mxCell id="-mziDGMkS7ORlLCOw0qk-12" value="W2053187_Session_Category" style="text;strokeColor=none;fillColor=none;align=left;verticalAlign=middle;spacingLeft=4;spacingRight=4;overflow=hidden;points=[[0,0.5],[1,0.5]];portConstraint=eastwest;rotatable=0;whiteSpace=wrap;html=1;" vertex="1" parent="-mziDGMkS7ORlLCOw0qk-9">
          <mxGeometry y="90" width="240" height="30" as="geometry" />
        </mxCell>
        <mxCell id="-mziDGMkS7ORlLCOw0qk-13" value="W2053187_Instructor_ID (FK)" style="text;strokeColor=none;fillColor=none;align=left;verticalAlign=middle;spacingLeft=4;spacingRight=4;overflow=hidden;points=[[0,0.5],[1,0.5]];portConstraint=eastwest;rotatable=0;whiteSpace=wrap;html=1;" vertex="1" parent="-mziDGMkS7ORlLCOw0qk-9">
          <mxGeometry y="120" width="240" height="30" as="geometry" />
        </mxCell>
        <mxCell id="-mziDGMkS7ORlLCOw0qk-14" value="W2053187_Bokking_ID (FK)" style="text;strokeColor=none;fillColor=none;align=left;verticalAlign=middle;spacingLeft=4;spacingRight=4;overflow=hidden;points=[[0,0.5],[1,0.5]];portConstraint=eastwest;rotatable=0;whiteSpace=wrap;html=1;" vertex="1" parent="-mziDGMkS7ORlLCOw0qk-9">
          <mxGeometry y="150" width="240" height="30" as="geometry" />
        </mxCell>
        <mxCell id="-mziDGMkS7ORlLCOw0qk-21" value="W2053187_Booking" style="swimlane;fontStyle=0;childLayout=stackLayout;horizontal=1;startSize=30;horizontalStack=0;resizeParent=1;resizeParentMax=0;resizeLast=0;collapsible=1;marginBottom=0;whiteSpace=wrap;html=1;" vertex="1" parent="1">
          <mxGeometry x="200" y="560" width="240" height="270" as="geometry" />
        </mxCell>
        <mxCell id="-mziDGMkS7ORlLCOw0qk-22" value="W2053187_Booking_ID (PK)" style="text;strokeColor=none;fillColor=none;align=left;verticalAlign=middle;spacingLeft=4;spacingRight=4;overflow=hidden;points=[[0,0.5],[1,0.5]];portConstraint=eastwest;rotatable=0;whiteSpace=wrap;html=1;" vertex="1" parent="-mziDGMkS7ORlLCOw0qk-21">
          <mxGeometry y="30" width="240" height="30" as="geometry" />
        </mxCell>
        <mxCell id="-mziDGMkS7ORlLCOw0qk-23" value="W2053187_Booking_Date" style="text;strokeColor=none;fillColor=none;align=left;verticalAlign=middle;spacingLeft=4;spacingRight=4;overflow=hidden;points=[[0,0.5],[1,0.5]];portConstraint=eastwest;rotatable=0;whiteSpace=wrap;html=1;" vertex="1" parent="-mziDGMkS7ORlLCOw0qk-21">
          <mxGeometry y="60" width="240" height="30" as="geometry" />
        </mxCell>
        <mxCell id="-mziDGMkS7ORlLCOw0qk-24" value="W2053187_Start_Time" style="text;strokeColor=none;fillColor=none;align=left;verticalAlign=middle;spacingLeft=4;spacingRight=4;overflow=hidden;points=[[0,0.5],[1,0.5]];portConstraint=eastwest;rotatable=0;whiteSpace=wrap;html=1;" vertex="1" parent="-mziDGMkS7ORlLCOw0qk-21">
          <mxGeometry y="90" width="240" height="30" as="geometry" />
        </mxCell>
        <mxCell id="-mziDGMkS7ORlLCOw0qk-25" value="W2053187_End_Time" style="text;strokeColor=none;fillColor=none;align=left;verticalAlign=middle;spacingLeft=4;spacingRight=4;overflow=hidden;points=[[0,0.5],[1,0.5]];portConstraint=eastwest;rotatable=0;whiteSpace=wrap;html=1;" vertex="1" parent="-mziDGMkS7ORlLCOw0qk-21">
          <mxGeometry y="120" width="240" height="30" as="geometry" />
        </mxCell>
        <mxCell id="-mziDGMkS7ORlLCOw0qk-26" value="W2053187_Player_ID (FK)" style="text;strokeColor=none;fillColor=none;align=left;verticalAlign=middle;spacingLeft=4;spacingRight=4;overflow=hidden;points=[[0,0.5],[1,0.5]];portConstraint=eastwest;rotatable=0;whiteSpace=wrap;html=1;" vertex="1" parent="-mziDGMkS7ORlLCOw0qk-21">
          <mxGeometry y="150" width="240" height="30" as="geometry" />
        </mxCell>
        <mxCell id="-mziDGMkS7ORlLCOw0qk-27" value="W2053187_Court_ID (FK)" style="text;strokeColor=none;fillColor=none;align=left;verticalAlign=middle;spacingLeft=4;spacingRight=4;overflow=hidden;points=[[0,0.5],[1,0.5]];portConstraint=eastwest;rotatable=0;whiteSpace=wrap;html=1;" vertex="1" parent="-mziDGMkS7ORlLCOw0qk-21">
          <mxGeometry y="180" width="240" height="30" as="geometry" />
        </mxCell>
        <mxCell id="-mziDGMkS7ORlLCOw0qk-28" value="W2053187_Session_Type" style="text;strokeColor=none;fillColor=none;align=left;verticalAlign=middle;spacingLeft=4;spacingRight=4;overflow=hidden;points=[[0,0.5],[1,0.5]];portConstraint=eastwest;rotatable=0;whiteSpace=wrap;html=1;" vertex="1" parent="-mziDGMkS7ORlLCOw0qk-21">
          <mxGeometry y="210" width="240" height="30" as="geometry" />
        </mxCell>
        <mxCell id="-mziDGMkS7ORlLCOw0qk-29" value="W2053187_Block_Booking_ID (FK)" style="text;strokeColor=none;fillColor=none;align=left;verticalAlign=middle;spacingLeft=4;spacingRight=4;overflow=hidden;points=[[0,0.5],[1,0.5]];portConstraint=eastwest;rotatable=0;whiteSpace=wrap;html=1;" vertex="1" parent="-mziDGMkS7ORlLCOw0qk-21">
          <mxGeometry y="240" width="240" height="30" as="geometry" />
        </mxCell>
        <mxCell id="-mziDGMkS7ORlLCOw0qk-37" value="W2053187_Maintenance_Log" style="swimlane;fontStyle=0;childLayout=stackLayout;horizontal=1;startSize=30;horizontalStack=0;resizeParent=1;resizeParentMax=0;resizeLast=0;collapsible=1;marginBottom=0;whiteSpace=wrap;html=1;" vertex="1" parent="1">
          <mxGeometry x="-130" y="560" width="230" height="240" as="geometry" />
        </mxCell>
        <mxCell id="-mziDGMkS7ORlLCOw0qk-38" value="W2053187_&lt;span style=&quot;text-align: center;&quot;&gt;Maintenance&lt;/span&gt;_ID (PK)" style="text;strokeColor=none;fillColor=none;align=left;verticalAlign=middle;spacingLeft=4;spacingRight=4;overflow=hidden;points=[[0,0.5],[1,0.5]];portConstraint=eastwest;rotatable=0;whiteSpace=wrap;html=1;" vertex="1" parent="-mziDGMkS7ORlLCOw0qk-37">
          <mxGeometry y="30" width="230" height="30" as="geometry" />
        </mxCell>
        <mxCell id="-mziDGMkS7ORlLCOw0qk-39" value="W2053187_Data" style="text;strokeColor=none;fillColor=none;align=left;verticalAlign=middle;spacingLeft=4;spacingRight=4;overflow=hidden;points=[[0,0.5],[1,0.5]];portConstraint=eastwest;rotatable=0;whiteSpace=wrap;html=1;" vertex="1" parent="-mziDGMkS7ORlLCOw0qk-37">
          <mxGeometry y="60" width="230" height="30" as="geometry" />
        </mxCell>
        <mxCell id="-mziDGMkS7ORlLCOw0qk-40" value="W2053187_Time" style="text;strokeColor=none;fillColor=none;align=left;verticalAlign=middle;spacingLeft=4;spacingRight=4;overflow=hidden;points=[[0,0.5],[1,0.5]];portConstraint=eastwest;rotatable=0;whiteSpace=wrap;html=1;" vertex="1" parent="-mziDGMkS7ORlLCOw0qk-37">
          <mxGeometry y="90" width="230" height="30" as="geometry" />
        </mxCell>
        <mxCell id="-mziDGMkS7ORlLCOw0qk-41" value="W2053187_Status" style="text;strokeColor=none;fillColor=none;align=left;verticalAlign=middle;spacingLeft=4;spacingRight=4;overflow=hidden;points=[[0,0.5],[1,0.5]];portConstraint=eastwest;rotatable=0;whiteSpace=wrap;html=1;" vertex="1" parent="-mziDGMkS7ORlLCOw0qk-37">
          <mxGeometry y="120" width="230" height="30" as="geometry" />
        </mxCell>
        <mxCell id="-mziDGMkS7ORlLCOw0qk-42" value="W2053187_Log_Description" style="text;strokeColor=none;fillColor=none;align=left;verticalAlign=middle;spacingLeft=4;spacingRight=4;overflow=hidden;points=[[0,0.5],[1,0.5]];portConstraint=eastwest;rotatable=0;whiteSpace=wrap;html=1;" vertex="1" parent="-mziDGMkS7ORlLCOw0qk-37">
          <mxGeometry y="150" width="230" height="30" as="geometry" />
        </mxCell>
        <mxCell id="-mziDGMkS7ORlLCOw0qk-43" value="W2053187_Court_ID (FK)" style="text;strokeColor=none;fillColor=none;align=left;verticalAlign=middle;spacingLeft=4;spacingRight=4;overflow=hidden;points=[[0,0.5],[1,0.5]];portConstraint=eastwest;rotatable=0;whiteSpace=wrap;html=1;" vertex="1" parent="-mziDGMkS7ORlLCOw0qk-37">
          <mxGeometry y="180" width="230" height="30" as="geometry" />
        </mxCell>
        <mxCell id="-mziDGMkS7ORlLCOw0qk-44" value="W2053187_Caretaker_ID (FK)" style="text;strokeColor=none;fillColor=none;align=left;verticalAlign=middle;spacingLeft=4;spacingRight=4;overflow=hidden;points=[[0,0.5],[1,0.5]];portConstraint=eastwest;rotatable=0;whiteSpace=wrap;html=1;" vertex="1" parent="-mziDGMkS7ORlLCOw0qk-37">
          <mxGeometry y="210" width="230" height="30" as="geometry" />
        </mxCell>
        <mxCell id="-mziDGMkS7ORlLCOw0qk-45" value="W2053187_Court" style="swimlane;fontStyle=0;childLayout=stackLayout;horizontal=1;startSize=30;horizontalStack=0;resizeParent=1;resizeParentMax=0;resizeLast=0;collapsible=1;marginBottom=0;whiteSpace=wrap;html=1;" vertex="1" parent="1">
          <mxGeometry x="-90" y="972" width="230" height="150" as="geometry" />
        </mxCell>
        <mxCell id="-mziDGMkS7ORlLCOw0qk-46" value="W2053187_Court_ID (PK)" style="text;strokeColor=none;fillColor=none;align=left;verticalAlign=middle;spacingLeft=4;spacingRight=4;overflow=hidden;points=[[0,0.5],[1,0.5]];portConstraint=eastwest;rotatable=0;whiteSpace=wrap;html=1;" vertex="1" parent="-mziDGMkS7ORlLCOw0qk-45">
          <mxGeometry y="30" width="230" height="30" as="geometry" />
        </mxCell>
        <mxCell id="-mziDGMkS7ORlLCOw0qk-47" value="W2053187_Court_Type" style="text;strokeColor=none;fillColor=none;align=left;verticalAlign=middle;spacingLeft=4;spacingRight=4;overflow=hidden;points=[[0,0.5],[1,0.5]];portConstraint=eastwest;rotatable=0;whiteSpace=wrap;html=1;" vertex="1" parent="-mziDGMkS7ORlLCOw0qk-45">
          <mxGeometry y="60" width="230" height="30" as="geometry" />
        </mxCell>
        <mxCell id="-mziDGMkS7ORlLCOw0qk-48" value="W2053187_Location" style="text;strokeColor=none;fillColor=none;align=left;verticalAlign=middle;spacingLeft=4;spacingRight=4;overflow=hidden;points=[[0,0.5],[1,0.5]];portConstraint=eastwest;rotatable=0;whiteSpace=wrap;html=1;" vertex="1" parent="-mziDGMkS7ORlLCOw0qk-45">
          <mxGeometry y="90" width="230" height="30" as="geometry" />
        </mxCell>
        <mxCell id="-mziDGMkS7ORlLCOw0qk-49" value="W2053187_Status" style="text;strokeColor=none;fillColor=none;align=left;verticalAlign=middle;spacingLeft=4;spacingRight=4;overflow=hidden;points=[[0,0.5],[1,0.5]];portConstraint=eastwest;rotatable=0;whiteSpace=wrap;html=1;" vertex="1" parent="-mziDGMkS7ORlLCOw0qk-45">
          <mxGeometry y="120" width="230" height="30" as="geometry" />
        </mxCell>
        <mxCell id="-mziDGMkS7ORlLCOw0qk-50" value="W2053187_Block_Booking" style="swimlane;fontStyle=0;childLayout=stackLayout;horizontal=1;startSize=30;horizontalStack=0;resizeParent=1;resizeParentMax=0;resizeLast=0;collapsible=1;marginBottom=0;whiteSpace=wrap;html=1;" vertex="1" parent="1">
          <mxGeometry x="200" y="972" width="230" height="150" as="geometry" />
        </mxCell>
        <mxCell id="-mziDGMkS7ORlLCOw0qk-51" value="W2053187_&lt;span style=&quot;text-align: center;&quot;&gt;Block_Booking&lt;/span&gt;_ID (PK)" style="text;strokeColor=none;fillColor=none;align=left;verticalAlign=middle;spacingLeft=4;spacingRight=4;overflow=hidden;points=[[0,0.5],[1,0.5]];portConstraint=eastwest;rotatable=0;whiteSpace=wrap;html=1;" vertex="1" parent="-mziDGMkS7ORlLCOw0qk-50">
          <mxGeometry y="30" width="230" height="30" as="geometry" />
        </mxCell>
        <mxCell id="-mziDGMkS7ORlLCOw0qk-53" value="W2053187_Start_Date" style="text;strokeColor=none;fillColor=none;align=left;verticalAlign=middle;spacingLeft=4;spacingRight=4;overflow=hidden;points=[[0,0.5],[1,0.5]];portConstraint=eastwest;rotatable=0;whiteSpace=wrap;html=1;" vertex="1" parent="-mziDGMkS7ORlLCOw0qk-50">
          <mxGeometry y="60" width="230" height="30" as="geometry" />
        </mxCell>
        <mxCell id="-mziDGMkS7ORlLCOw0qk-54" value="W2053187_End_Date" style="text;strokeColor=none;fillColor=none;align=left;verticalAlign=middle;spacingLeft=4;spacingRight=4;overflow=hidden;points=[[0,0.5],[1,0.5]];portConstraint=eastwest;rotatable=0;whiteSpace=wrap;html=1;" vertex="1" parent="-mziDGMkS7ORlLCOw0qk-50">
          <mxGeometry y="90" width="230" height="30" as="geometry" />
        </mxCell>
        <mxCell id="-mziDGMkS7ORlLCOw0qk-55" value="W2053187_Player_ID (FK)" style="text;strokeColor=none;fillColor=none;align=left;verticalAlign=middle;spacingLeft=4;spacingRight=4;overflow=hidden;points=[[0,0.5],[1,0.5]];portConstraint=eastwest;rotatable=0;whiteSpace=wrap;html=1;" vertex="1" parent="-mziDGMkS7ORlLCOw0qk-50">
          <mxGeometry y="120" width="230" height="30" as="geometry" />
        </mxCell>
        <mxCell id="-mziDGMkS7ORlLCOw0qk-59" value="W2053187_Player" style="swimlane;fontStyle=0;childLayout=stackLayout;horizontal=1;startSize=30;horizontalStack=0;resizeParent=1;resizeParentMax=0;resizeLast=0;collapsible=1;marginBottom=0;whiteSpace=wrap;html=1;" vertex="1" parent="1">
          <mxGeometry x="480" y="972" width="230" height="150" as="geometry" />
        </mxCell>
        <mxCell id="-mziDGMkS7ORlLCOw0qk-60" value="&lt;div style=&quot;text-align: center;&quot;&gt;&lt;span style=&quot;background-color: initial;&quot;&gt;W2053187_Player&lt;/span&gt;&lt;span style=&quot;background-color: initial;&quot;&gt;_ID (PK)&lt;/span&gt;&lt;/div&gt;" style="text;strokeColor=none;fillColor=none;align=left;verticalAlign=middle;spacingLeft=4;spacingRight=4;overflow=hidden;points=[[0,0.5],[1,0.5]];portConstraint=eastwest;rotatable=0;whiteSpace=wrap;html=1;" vertex="1" parent="-mziDGMkS7ORlLCOw0qk-59">
          <mxGeometry y="30" width="230" height="30" as="geometry" />
        </mxCell>
        <mxCell id="-mziDGMkS7ORlLCOw0qk-61" value="W2053187_Name" style="text;strokeColor=none;fillColor=none;align=left;verticalAlign=middle;spacingLeft=4;spacingRight=4;overflow=hidden;points=[[0,0.5],[1,0.5]];portConstraint=eastwest;rotatable=0;whiteSpace=wrap;html=1;" vertex="1" parent="-mziDGMkS7ORlLCOw0qk-59">
          <mxGeometry y="60" width="230" height="30" as="geometry" />
        </mxCell>
        <mxCell id="-mziDGMkS7ORlLCOw0qk-62" value="W2053187_Contact_Details" style="text;strokeColor=none;fillColor=none;align=left;verticalAlign=middle;spacingLeft=4;spacingRight=4;overflow=hidden;points=[[0,0.5],[1,0.5]];portConstraint=eastwest;rotatable=0;whiteSpace=wrap;html=1;" vertex="1" parent="-mziDGMkS7ORlLCOw0qk-59">
          <mxGeometry y="90" width="230" height="30" as="geometry" />
        </mxCell>
        <mxCell id="-mziDGMkS7ORlLCOw0qk-63" value="W2053187_Recommended_By (FK)" style="text;strokeColor=none;fillColor=none;align=left;verticalAlign=middle;spacingLeft=4;spacingRight=4;overflow=hidden;points=[[0,0.5],[1,0.5]];portConstraint=eastwest;rotatable=0;whiteSpace=wrap;html=1;" vertex="1" parent="-mziDGMkS7ORlLCOw0qk-59">
          <mxGeometry y="120" width="230" height="30" as="geometry" />
        </mxCell>
        <mxCell id="-mziDGMkS7ORlLCOw0qk-64" value="W2053187_Caretaker" style="swimlane;fontStyle=0;childLayout=stackLayout;horizontal=1;startSize=30;horizontalStack=0;resizeParent=1;resizeParentMax=0;resizeLast=0;collapsible=1;marginBottom=0;whiteSpace=wrap;html=1;" vertex="1" parent="1">
          <mxGeometry x="270" y="1192" width="230" height="120" as="geometry" />
        </mxCell>
        <mxCell id="-mziDGMkS7ORlLCOw0qk-65" value="&lt;div style=&quot;text-align: center;&quot;&gt;&lt;span style=&quot;background-color: initial;&quot;&gt;W2053187_Caretaker&lt;/span&gt;&lt;span style=&quot;background-color: initial;&quot;&gt;_ID (PK)&lt;/span&gt;&lt;/div&gt;" style="text;strokeColor=none;fillColor=none;align=left;verticalAlign=middle;spacingLeft=4;spacingRight=4;overflow=hidden;points=[[0,0.5],[1,0.5]];portConstraint=eastwest;rotatable=0;whiteSpace=wrap;html=1;" vertex="1" parent="-mziDGMkS7ORlLCOw0qk-64">
          <mxGeometry y="30" width="230" height="30" as="geometry" />
        </mxCell>
        <mxCell id="-mziDGMkS7ORlLCOw0qk-66" value="W2053187_Name" style="text;strokeColor=none;fillColor=none;align=left;verticalAlign=middle;spacingLeft=4;spacingRight=4;overflow=hidden;points=[[0,0.5],[1,0.5]];portConstraint=eastwest;rotatable=0;whiteSpace=wrap;html=1;" vertex="1" parent="-mziDGMkS7ORlLCOw0qk-64">
          <mxGeometry y="60" width="230" height="30" as="geometry" />
        </mxCell>
        <mxCell id="-mziDGMkS7ORlLCOw0qk-68" value="W2053187_Assigned_Area (FK)" style="text;strokeColor=none;fillColor=none;align=left;verticalAlign=middle;spacingLeft=4;spacingRight=4;overflow=hidden;points=[[0,0.5],[1,0.5]];portConstraint=eastwest;rotatable=0;whiteSpace=wrap;html=1;" vertex="1" parent="-mziDGMkS7ORlLCOw0qk-64">
          <mxGeometry y="90" width="230" height="30" as="geometry" />
        </mxCell>
        <mxCell id="-mziDGMkS7ORlLCOw0qk-69" value="W2053187_Park" style="swimlane;fontStyle=0;childLayout=stackLayout;horizontal=1;startSize=30;horizontalStack=0;resizeParent=1;resizeParentMax=0;resizeLast=0;collapsible=1;marginBottom=0;whiteSpace=wrap;html=1;" vertex="1" parent="1">
          <mxGeometry x="850" y="1090" width="230" height="150" as="geometry" />
        </mxCell>
        <mxCell id="-mziDGMkS7ORlLCOw0qk-70" value="&lt;div style=&quot;text-align: center;&quot;&gt;&lt;span style=&quot;background-color: initial;&quot;&gt;W2053187_Park&lt;/span&gt;&lt;span style=&quot;background-color: initial;&quot;&gt;_ID (PK)&lt;/span&gt;&lt;/div&gt;" style="text;strokeColor=none;fillColor=none;align=left;verticalAlign=middle;spacingLeft=4;spacingRight=4;overflow=hidden;points=[[0,0.5],[1,0.5]];portConstraint=eastwest;rotatable=0;whiteSpace=wrap;html=1;" vertex="1" parent="-mziDGMkS7ORlLCOw0qk-69">
          <mxGeometry y="30" width="230" height="30" as="geometry" />
        </mxCell>
        <mxCell id="-mziDGMkS7ORlLCOw0qk-71" value="W2053187_Name" style="text;strokeColor=none;fillColor=none;align=left;verticalAlign=middle;spacingLeft=4;spacingRight=4;overflow=hidden;points=[[0,0.5],[1,0.5]];portConstraint=eastwest;rotatable=0;whiteSpace=wrap;html=1;" vertex="1" parent="-mziDGMkS7ORlLCOw0qk-69">
          <mxGeometry y="60" width="230" height="30" as="geometry" />
        </mxCell>
        <mxCell id="-mziDGMkS7ORlLCOw0qk-73" value="W2053187_Location" style="text;strokeColor=none;fillColor=none;align=left;verticalAlign=middle;spacingLeft=4;spacingRight=4;overflow=hidden;points=[[0,0.5],[1,0.5]];portConstraint=eastwest;rotatable=0;whiteSpace=wrap;html=1;" vertex="1" parent="-mziDGMkS7ORlLCOw0qk-69">
          <mxGeometry y="90" width="230" height="30" as="geometry" />
        </mxCell>
        <mxCell id="-mziDGMkS7ORlLCOw0qk-72" value="W2053187_Caretaker_ID (FK)" style="text;strokeColor=none;fillColor=none;align=left;verticalAlign=middle;spacingLeft=4;spacingRight=4;overflow=hidden;points=[[0,0.5],[1,0.5]];portConstraint=eastwest;rotatable=0;whiteSpace=wrap;html=1;" vertex="1" parent="-mziDGMkS7ORlLCOw0qk-69">
          <mxGeometry y="120" width="230" height="30" as="geometry" />
        </mxCell>
        <mxCell id="-mziDGMkS7ORlLCOw0qk-74" value="" style="endArrow=none;html=1;rounded=0;exitX=0.5;exitY=0;exitDx=0;exitDy=0;entryX=0.495;entryY=0.985;entryDx=0;entryDy=0;entryPerimeter=0;" edge="1" parent="1" source="-mziDGMkS7ORlLCOw0qk-9" target="-mziDGMkS7ORlLCOw0qk-8">
          <mxGeometry width="50" height="50" relative="1" as="geometry">
            <mxPoint x="270" y="280" as="sourcePoint" />
            <mxPoint x="320" y="230" as="targetPoint" />
          </mxGeometry>
        </mxCell>
        <mxCell id="-mziDGMkS7ORlLCOw0qk-75" value="" style="endArrow=none;html=1;rounded=0;exitX=0.5;exitY=0;exitDx=0;exitDy=0;entryX=0.5;entryY=1.021;entryDx=0;entryDy=0;entryPerimeter=0;" edge="1" parent="1" source="-mziDGMkS7ORlLCOw0qk-21" target="-mziDGMkS7ORlLCOw0qk-14">
          <mxGeometry width="50" height="50" relative="1" as="geometry">
            <mxPoint x="319.62" y="550" as="sourcePoint" />
            <mxPoint x="319.62" y="480" as="targetPoint" />
          </mxGeometry>
        </mxCell>
        <mxCell id="-mziDGMkS7ORlLCOw0qk-78" value="" style="endArrow=none;html=1;rounded=0;exitX=0.5;exitY=0;exitDx=0;exitDy=0;" edge="1" parent="1" source="-mziDGMkS7ORlLCOw0qk-50">
          <mxGeometry width="50" height="50" relative="1" as="geometry">
            <mxPoint x="319.33" y="909" as="sourcePoint" />
            <mxPoint x="314" y="830" as="targetPoint" />
          </mxGeometry>
        </mxCell>
        <mxCell id="-mziDGMkS7ORlLCOw0qk-79" value="" style="endArrow=none;html=1;rounded=0;entryX=0.25;entryY=0;entryDx=0;entryDy=0;exitX=1;exitY=0.5;exitDx=0;exitDy=0;" edge="1" parent="1" source="-mziDGMkS7ORlLCOw0qk-28" target="-mziDGMkS7ORlLCOw0qk-59">
          <mxGeometry width="50" height="50" relative="1" as="geometry">
            <mxPoint x="440" y="780" as="sourcePoint" />
            <mxPoint x="490" y="730" as="targetPoint" />
          </mxGeometry>
        </mxCell>
        <mxCell id="-mziDGMkS7ORlLCOw0qk-80" value="" style="endArrow=none;html=1;rounded=0;exitX=0.75;exitY=0;exitDx=0;exitDy=0;entryX=0;entryY=0.5;entryDx=0;entryDy=0;" edge="1" parent="1" source="-mziDGMkS7ORlLCOw0qk-45" target="-mziDGMkS7ORlLCOw0qk-28">
          <mxGeometry width="50" height="50" relative="1" as="geometry">
            <mxPoint x="191" y="922" as="sourcePoint" />
            <mxPoint x="190" y="780" as="targetPoint" />
          </mxGeometry>
        </mxCell>
        <mxCell id="-mziDGMkS7ORlLCOw0qk-81" value="" style="endArrow=none;html=1;rounded=0;exitX=0.5;exitY=0;exitDx=0;exitDy=0;" edge="1" parent="1" source="-mziDGMkS7ORlLCOw0qk-45" target="-mziDGMkS7ORlLCOw0qk-44">
          <mxGeometry width="50" height="50" relative="1" as="geometry">
            <mxPoint y="970" as="sourcePoint" />
            <mxPoint x="17" y="795" as="targetPoint" />
          </mxGeometry>
        </mxCell>
        <mxCell id="-mziDGMkS7ORlLCOw0qk-82" value="" style="endArrow=none;html=1;rounded=0;exitX=0;exitY=0.5;exitDx=0;exitDy=0;" edge="1" parent="1" source="-mziDGMkS7ORlLCOw0qk-65" target="-mziDGMkS7ORlLCOw0qk-49">
          <mxGeometry width="50" height="50" relative="1" as="geometry">
            <mxPoint x="121" y="1302" as="sourcePoint" />
            <mxPoint x="120" y="1160" as="targetPoint" />
          </mxGeometry>
        </mxCell>
        <mxCell id="-mziDGMkS7ORlLCOw0qk-83" value="" style="endArrow=none;html=1;rounded=0;entryX=1;entryY=0.25;entryDx=0;entryDy=0;exitX=0;exitY=0.5;exitDx=0;exitDy=0;" edge="1" parent="1" source="-mziDGMkS7ORlLCOw0qk-72" target="-mziDGMkS7ORlLCOw0qk-64">
          <mxGeometry width="50" height="50" relative="1" as="geometry">
            <mxPoint x="680" y="1187" as="sourcePoint" />
            <mxPoint x="778" y="1374" as="targetPoint" />
          </mxGeometry>
        </mxCell>
        <mxCell id="-mziDGMkS7ORlLCOw0qk-90" value="" style="endArrow=none;html=1;rounded=0;strokeColor=default;align=center;verticalAlign=middle;fontFamily=Helvetica;fontSize=11;fontColor=default;labelBackgroundColor=default;curved=1;" edge="1" parent="1">
          <mxGeometry width="50" height="50" relative="1" as="geometry">
            <mxPoint x="710" y="1030" as="sourcePoint" />
            <mxPoint x="710" y="1062" as="targetPoint" />
            <Array as="points">
              <mxPoint x="760" y="1040" />
              <mxPoint x="740" y="1060" />
            </Array>
          </mxGeometry>
        </mxCell>
        <mxCell id="-mziDGMkS7ORlLCOw0qk-91" value="&lt;font style=&quot;font-size: 18px;&quot;&gt;Recommends&lt;/font&gt;" style="text;html=1;align=center;verticalAlign=middle;whiteSpace=wrap;rounded=0;fontFamily=Helvetica;fontSize=11;fontColor=default;labelBackgroundColor=default;" vertex="1" parent="1">
          <mxGeometry x="757" y="1030" width="120" height="30" as="geometry" />
        </mxCell>
        <mxCell id="-mziDGMkS7ORlLCOw0qk-93" value="W2053187_Session" style="swimlane;fontStyle=0;childLayout=stackLayout;horizontal=1;startSize=30;horizontalStack=0;resizeParent=1;resizeParentMax=0;resizeLast=0;collapsible=1;marginBottom=0;whiteSpace=wrap;html=1;" vertex="1" parent="1">
          <mxGeometry x="-12" y="1630" width="240" height="60" as="geometry" />
        </mxCell>
        <mxCell id="-mziDGMkS7ORlLCOw0qk-94" value="W2053187_Session_ID (PK)" style="text;strokeColor=none;fillColor=none;align=left;verticalAlign=middle;spacingLeft=4;spacingRight=4;overflow=hidden;points=[[0,0.5],[1,0.5]];portConstraint=eastwest;rotatable=0;whiteSpace=wrap;html=1;" vertex="1" parent="-mziDGMkS7ORlLCOw0qk-93">
          <mxGeometry y="30" width="240" height="30" as="geometry" />
        </mxCell>
        <mxCell id="-mziDGMkS7ORlLCOw0qk-105" value="W2053187_Unsupervised_Session" style="swimlane;fontStyle=0;childLayout=stackLayout;horizontal=1;startSize=30;horizontalStack=0;resizeParent=1;resizeParentMax=0;resizeLast=0;collapsible=1;marginBottom=0;whiteSpace=wrap;html=1;" vertex="1" parent="1">
          <mxGeometry x="-212" y="1750" width="240" height="60" as="geometry" />
        </mxCell>
        <mxCell id="-mziDGMkS7ORlLCOw0qk-116" value="Text" style="text;html=1;align=center;verticalAlign=middle;resizable=0;points=[];autosize=1;strokeColor=none;fillColor=none;fontFamily=Helvetica;fontSize=11;fontColor=default;labelBackgroundColor=default;" vertex="1" parent="-mziDGMkS7ORlLCOw0qk-105">
          <mxGeometry y="30" width="240" height="30" as="geometry" />
        </mxCell>
        <mxCell id="-mziDGMkS7ORlLCOw0qk-107" value="W2053187_Supervised_Session" style="swimlane;fontStyle=0;childLayout=stackLayout;horizontal=1;startSize=30;horizontalStack=0;resizeParent=1;resizeParentMax=0;resizeLast=0;collapsible=1;marginBottom=0;whiteSpace=wrap;html=1;" vertex="1" parent="1">
          <mxGeometry x="188" y="1750" width="240" height="60" as="geometry" />
        </mxCell>
        <mxCell id="-mziDGMkS7ORlLCOw0qk-118" value="Text" style="text;html=1;align=center;verticalAlign=middle;whiteSpace=wrap;rounded=0;fontFamily=Helvetica;fontSize=11;fontColor=default;labelBackgroundColor=default;" vertex="1" parent="-mziDGMkS7ORlLCOw0qk-107">
          <mxGeometry y="30" width="240" height="30" as="geometry" />
        </mxCell>
        <mxCell id="-mziDGMkS7ORlLCOw0qk-109" value="W2053187_Singles_Session" style="swimlane;fontStyle=0;childLayout=stackLayout;horizontal=1;startSize=30;horizontalStack=0;resizeParent=1;resizeParentMax=0;resizeLast=0;collapsible=1;marginBottom=0;whiteSpace=wrap;html=1;" vertex="1" parent="1">
          <mxGeometry x="-270" y="1872" width="173" height="60" as="geometry" />
        </mxCell>
        <mxCell id="-mziDGMkS7ORlLCOw0qk-115" value="Text" style="text;html=1;align=center;verticalAlign=middle;resizable=0;points=[];autosize=1;strokeColor=none;fillColor=none;fontFamily=Helvetica;fontSize=11;fontColor=default;labelBackgroundColor=default;" vertex="1" parent="-mziDGMkS7ORlLCOw0qk-109">
          <mxGeometry y="30" width="173" height="30" as="geometry" />
        </mxCell>
        <mxCell id="-mziDGMkS7ORlLCOw0qk-110" value="W2053187_Doubles_Session" style="swimlane;fontStyle=0;childLayout=stackLayout;horizontal=1;startSize=30;horizontalStack=0;resizeParent=1;resizeParentMax=0;resizeLast=0;collapsible=1;marginBottom=0;whiteSpace=wrap;html=1;" vertex="1" parent="1">
          <mxGeometry x="-88" y="1872" width="173" height="60" as="geometry" />
        </mxCell>
        <mxCell id="-mziDGMkS7ORlLCOw0qk-117" value="Text" style="text;html=1;align=center;verticalAlign=middle;whiteSpace=wrap;rounded=0;fontFamily=Helvetica;fontSize=11;fontColor=default;labelBackgroundColor=default;" vertex="1" parent="-mziDGMkS7ORlLCOw0qk-110">
          <mxGeometry y="30" width="173" height="30" as="geometry" />
        </mxCell>
        <mxCell id="-mziDGMkS7ORlLCOw0qk-111" value="W2053187_Supervised_Personal" style="swimlane;fontStyle=0;childLayout=stackLayout;horizontal=1;startSize=30;horizontalStack=0;resizeParent=1;resizeParentMax=0;resizeLast=0;collapsible=1;marginBottom=0;whiteSpace=wrap;html=1;" vertex="1" parent="1">
          <mxGeometry x="113" y="1871" width="195" height="60" as="geometry" />
        </mxCell>
        <mxCell id="-mziDGMkS7ORlLCOw0qk-119" value="Text" style="text;html=1;align=center;verticalAlign=middle;whiteSpace=wrap;rounded=0;fontFamily=Helvetica;fontSize=11;fontColor=default;labelBackgroundColor=default;" vertex="1" parent="-mziDGMkS7ORlLCOw0qk-111">
          <mxGeometry y="30" width="195" height="30" as="geometry" />
        </mxCell>
        <mxCell id="-mziDGMkS7ORlLCOw0qk-112" value="W2053187_Supervised_Group" style="swimlane;fontStyle=0;childLayout=stackLayout;horizontal=1;startSize=30;horizontalStack=0;resizeParent=1;resizeParentMax=0;resizeLast=0;collapsible=1;marginBottom=0;whiteSpace=wrap;html=1;" vertex="1" parent="1">
          <mxGeometry x="317" y="1871" width="176" height="60" as="geometry" />
        </mxCell>
        <mxCell id="-mziDGMkS7ORlLCOw0qk-120" value="Text" style="text;html=1;align=center;verticalAlign=middle;whiteSpace=wrap;rounded=0;fontFamily=Helvetica;fontSize=11;fontColor=default;labelBackgroundColor=default;" vertex="1" parent="-mziDGMkS7ORlLCOw0qk-112">
          <mxGeometry y="30" width="176" height="30" as="geometry" />
        </mxCell>
        <mxCell id="-mziDGMkS7ORlLCOw0qk-113" value="W2053187_Fitness_Play" style="swimlane;fontStyle=0;childLayout=stackLayout;horizontal=1;startSize=30;horizontalStack=0;resizeParent=1;resizeParentMax=0;resizeLast=0;collapsible=1;marginBottom=0;whiteSpace=wrap;html=1;" vertex="1" parent="1">
          <mxGeometry x="120" y="1994" width="176" height="60" as="geometry" />
        </mxCell>
        <mxCell id="-mziDGMkS7ORlLCOw0qk-122" value="Text" style="text;html=1;align=center;verticalAlign=middle;whiteSpace=wrap;rounded=0;fontFamily=Helvetica;fontSize=11;fontColor=default;labelBackgroundColor=default;" vertex="1" parent="-mziDGMkS7ORlLCOw0qk-113">
          <mxGeometry y="30" width="176" height="30" as="geometry" />
        </mxCell>
        <mxCell id="-mziDGMkS7ORlLCOw0qk-114" value="W2053187_Group_Coaching" style="swimlane;fontStyle=0;childLayout=stackLayout;horizontal=1;startSize=30;horizontalStack=0;resizeParent=1;resizeParentMax=0;resizeLast=0;collapsible=1;marginBottom=0;whiteSpace=wrap;html=1;" vertex="1" parent="1">
          <mxGeometry x="317" y="1994" width="176" height="60" as="geometry" />
        </mxCell>
        <mxCell id="-mziDGMkS7ORlLCOw0qk-123" value="Text" style="text;html=1;align=center;verticalAlign=middle;whiteSpace=wrap;rounded=0;fontFamily=Helvetica;fontSize=11;fontColor=default;labelBackgroundColor=default;" vertex="1" parent="-mziDGMkS7ORlLCOw0qk-114">
          <mxGeometry y="30" width="176" height="30" as="geometry" />
        </mxCell>
        <mxCell id="-mziDGMkS7ORlLCOw0qk-121" value="W2053187_Social_Fun" style="swimlane;fontStyle=0;childLayout=stackLayout;horizontal=1;startSize=30;horizontalStack=0;resizeParent=1;resizeParentMax=0;resizeLast=0;collapsible=1;marginBottom=0;whiteSpace=wrap;html=1;" vertex="1" parent="1">
          <mxGeometry x="510" y="1994" width="176" height="60" as="geometry" />
        </mxCell>
        <mxCell id="-mziDGMkS7ORlLCOw0qk-124" value="Text" style="text;html=1;align=center;verticalAlign=middle;whiteSpace=wrap;rounded=0;fontFamily=Helvetica;fontSize=11;fontColor=default;labelBackgroundColor=default;" vertex="1" parent="-mziDGMkS7ORlLCOw0qk-121">
          <mxGeometry y="30" width="176" height="30" as="geometry" />
        </mxCell>
        <mxCell id="-mziDGMkS7ORlLCOw0qk-125" value="" style="endArrow=classic;html=1;rounded=0;strokeColor=default;align=center;verticalAlign=middle;fontFamily=Helvetica;fontSize=11;fontColor=default;labelBackgroundColor=default;curved=1;entryX=0.503;entryY=1.025;entryDx=0;entryDy=0;entryPerimeter=0;" edge="1" parent="1">
          <mxGeometry width="50" height="50" relative="1" as="geometry">
            <mxPoint x="107" y="1731" as="sourcePoint" />
            <mxPoint x="106.7199999999998" y="1690.75" as="targetPoint" />
          </mxGeometry>
        </mxCell>
        <mxCell id="-mziDGMkS7ORlLCOw0qk-126" value="" style="endArrow=none;html=1;rounded=0;strokeColor=default;align=center;verticalAlign=middle;fontFamily=Helvetica;fontSize=11;fontColor=default;labelBackgroundColor=default;curved=1;" edge="1" parent="1">
          <mxGeometry width="50" height="50" relative="1" as="geometry">
            <mxPoint x="308" y="1731" as="sourcePoint" />
            <mxPoint x="-92" y="1731" as="targetPoint" />
          </mxGeometry>
        </mxCell>
        <mxCell id="-mziDGMkS7ORlLCOw0qk-128" value="" style="endArrow=none;html=1;rounded=0;strokeColor=default;align=center;verticalAlign=middle;fontFamily=Helvetica;fontSize=11;fontColor=default;labelBackgroundColor=default;curved=1;exitX=0.5;exitY=0;exitDx=0;exitDy=0;" edge="1" parent="1" source="-mziDGMkS7ORlLCOw0qk-105">
          <mxGeometry width="50" height="50" relative="1" as="geometry">
            <mxPoint x="-102" y="1731" as="sourcePoint" />
            <mxPoint x="-92" y="1731" as="targetPoint" />
          </mxGeometry>
        </mxCell>
        <mxCell id="-mziDGMkS7ORlLCOw0qk-130" value="" style="endArrow=none;html=1;rounded=0;strokeColor=default;align=center;verticalAlign=middle;fontFamily=Helvetica;fontSize=11;fontColor=default;labelBackgroundColor=default;curved=1;exitX=0.5;exitY=0;exitDx=0;exitDy=0;" edge="1" parent="1">
          <mxGeometry width="50" height="50" relative="1" as="geometry">
            <mxPoint x="308" y="1750" as="sourcePoint" />
            <mxPoint x="308" y="1731" as="targetPoint" />
          </mxGeometry>
        </mxCell>
        <mxCell id="-mziDGMkS7ORlLCOw0qk-131" value="" style="endArrow=none;html=1;rounded=0;strokeColor=default;align=center;verticalAlign=middle;fontFamily=Helvetica;fontSize=11;fontColor=default;labelBackgroundColor=default;curved=1;" edge="1" parent="1">
          <mxGeometry width="50" height="50" relative="1" as="geometry">
            <mxPoint x="-2" y="1851" as="sourcePoint" />
            <mxPoint x="-182" y="1851" as="targetPoint" />
          </mxGeometry>
        </mxCell>
        <mxCell id="-mziDGMkS7ORlLCOw0qk-132" value="" style="endArrow=none;html=1;rounded=0;strokeColor=default;align=center;verticalAlign=middle;fontFamily=Helvetica;fontSize=11;fontColor=default;labelBackgroundColor=default;curved=1;exitX=0.5;exitY=0;exitDx=0;exitDy=0;" edge="1" parent="1">
          <mxGeometry width="50" height="50" relative="1" as="geometry">
            <mxPoint x="408" y="1870" as="sourcePoint" />
            <mxPoint x="408" y="1851" as="targetPoint" />
          </mxGeometry>
        </mxCell>
        <mxCell id="-mziDGMkS7ORlLCOw0qk-133" value="" style="endArrow=none;html=1;rounded=0;strokeColor=default;align=center;verticalAlign=middle;fontFamily=Helvetica;fontSize=11;fontColor=default;labelBackgroundColor=default;curved=1;exitX=0.5;exitY=0;exitDx=0;exitDy=0;" edge="1" parent="1">
          <mxGeometry width="50" height="50" relative="1" as="geometry">
            <mxPoint x="209" y="1870" as="sourcePoint" />
            <mxPoint x="209" y="1851" as="targetPoint" />
          </mxGeometry>
        </mxCell>
        <mxCell id="-mziDGMkS7ORlLCOw0qk-134" value="" style="endArrow=none;html=1;rounded=0;strokeColor=default;align=center;verticalAlign=middle;fontFamily=Helvetica;fontSize=11;fontColor=default;labelBackgroundColor=default;curved=1;exitX=0.5;exitY=0;exitDx=0;exitDy=0;" edge="1" parent="1">
          <mxGeometry width="50" height="50" relative="1" as="geometry">
            <mxPoint x="-3" y="1871" as="sourcePoint" />
            <mxPoint x="-3" y="1852" as="targetPoint" />
          </mxGeometry>
        </mxCell>
        <mxCell id="-mziDGMkS7ORlLCOw0qk-135" value="" style="endArrow=none;html=1;rounded=0;strokeColor=default;align=center;verticalAlign=middle;fontFamily=Helvetica;fontSize=11;fontColor=default;labelBackgroundColor=default;curved=1;exitX=0.5;exitY=0;exitDx=0;exitDy=0;" edge="1" parent="1">
          <mxGeometry width="50" height="50" relative="1" as="geometry">
            <mxPoint x="-181" y="1871" as="sourcePoint" />
            <mxPoint x="-181" y="1852" as="targetPoint" />
          </mxGeometry>
        </mxCell>
        <mxCell id="-mziDGMkS7ORlLCOw0qk-136" value="" style="endArrow=none;html=1;rounded=0;strokeColor=default;align=center;verticalAlign=middle;fontFamily=Helvetica;fontSize=11;fontColor=default;labelBackgroundColor=default;curved=1;" edge="1" parent="1">
          <mxGeometry width="50" height="50" relative="1" as="geometry">
            <mxPoint x="408" y="1851" as="sourcePoint" />
            <mxPoint x="209" y="1851" as="targetPoint" />
          </mxGeometry>
        </mxCell>
        <mxCell id="-mziDGMkS7ORlLCOw0qk-137" value="" style="endArrow=none;html=1;rounded=0;strokeColor=default;align=center;verticalAlign=middle;fontFamily=Helvetica;fontSize=11;fontColor=default;labelBackgroundColor=default;curved=1;" edge="1" parent="1">
          <mxGeometry width="50" height="50" relative="1" as="geometry">
            <mxPoint x="598" y="1971" as="sourcePoint" />
            <mxPoint x="208.5" y="1971" as="targetPoint" />
          </mxGeometry>
        </mxCell>
        <mxCell id="-mziDGMkS7ORlLCOw0qk-138" value="" style="endArrow=none;html=1;rounded=0;strokeColor=default;align=center;verticalAlign=middle;fontFamily=Helvetica;fontSize=11;fontColor=default;labelBackgroundColor=default;curved=1;exitX=0.5;exitY=0;exitDx=0;exitDy=0;" edge="1" parent="1" source="-mziDGMkS7ORlLCOw0qk-113">
          <mxGeometry width="50" height="50" relative="1" as="geometry">
            <mxPoint x="208" y="1991" as="sourcePoint" />
            <mxPoint x="208" y="1971" as="targetPoint" />
          </mxGeometry>
        </mxCell>
        <mxCell id="-mziDGMkS7ORlLCOw0qk-139" value="" style="endArrow=none;html=1;rounded=0;strokeColor=default;align=center;verticalAlign=middle;fontFamily=Helvetica;fontSize=11;fontColor=default;labelBackgroundColor=default;curved=1;entryX=0.513;entryY=1.013;entryDx=0;entryDy=0;entryPerimeter=0;exitX=0.517;exitY=-0.001;exitDx=0;exitDy=0;exitPerimeter=0;" edge="1" parent="1" source="-mziDGMkS7ORlLCOw0qk-114" target="-mziDGMkS7ORlLCOw0qk-120">
          <mxGeometry width="50" height="50" relative="1" as="geometry">
            <mxPoint x="408" y="1991" as="sourcePoint" />
            <mxPoint x="406" y="1971" as="targetPoint" />
          </mxGeometry>
        </mxCell>
        <mxCell id="-mziDGMkS7ORlLCOw0qk-140" value="" style="endArrow=none;html=1;rounded=0;strokeColor=default;align=center;verticalAlign=middle;fontFamily=Helvetica;fontSize=11;fontColor=default;labelBackgroundColor=default;curved=1;exitX=0.5;exitY=0;exitDx=0;exitDy=0;" edge="1" parent="1">
          <mxGeometry width="50" height="50" relative="1" as="geometry">
            <mxPoint x="598" y="1994" as="sourcePoint" />
            <mxPoint x="598" y="1971" as="targetPoint" />
          </mxGeometry>
        </mxCell>
        <mxCell id="-mziDGMkS7ORlLCOw0qk-142" value="" style="endArrow=none;html=1;rounded=0;strokeColor=default;align=center;verticalAlign=middle;fontFamily=Helvetica;fontSize=11;fontColor=default;labelBackgroundColor=default;curved=1;entryX=0.5;entryY=1;entryDx=0;entryDy=0;" edge="1" parent="1" target="-mziDGMkS7ORlLCOw0qk-118">
          <mxGeometry width="50" height="50" relative="1" as="geometry">
            <mxPoint x="308" y="1851" as="sourcePoint" />
            <mxPoint x="305" y="1810" as="targetPoint" />
          </mxGeometry>
        </mxCell>
        <mxCell id="-mziDGMkS7ORlLCOw0qk-143" value="W2053187_Session" style="swimlane;fontStyle=0;childLayout=stackLayout;horizontal=1;startSize=30;horizontalStack=0;resizeParent=1;resizeParentMax=0;resizeLast=0;collapsible=1;marginBottom=0;whiteSpace=wrap;html=1;" vertex="1" parent="1">
          <mxGeometry x="1073" y="1701" width="240" height="60" as="geometry" />
        </mxCell>
        <mxCell id="-mziDGMkS7ORlLCOw0qk-144" value="W2053187_Session_ID (PK)" style="text;strokeColor=none;fillColor=none;align=left;verticalAlign=middle;spacingLeft=4;spacingRight=4;overflow=hidden;points=[[0,0.5],[1,0.5]];portConstraint=eastwest;rotatable=0;whiteSpace=wrap;html=1;" vertex="1" parent="-mziDGMkS7ORlLCOw0qk-143">
          <mxGeometry y="30" width="240" height="30" as="geometry" />
        </mxCell>
        <mxCell id="-mziDGMkS7ORlLCOw0qk-145" value="W2053187_Unsupervised_Session" style="swimlane;fontStyle=0;childLayout=stackLayout;horizontal=1;startSize=30;horizontalStack=0;resizeParent=1;resizeParentMax=0;resizeLast=0;collapsible=1;marginBottom=0;whiteSpace=wrap;html=1;" vertex="1" parent="1">
          <mxGeometry x="873" y="1821" width="240" height="60" as="geometry" />
        </mxCell>
        <mxCell id="-mziDGMkS7ORlLCOw0qk-146" value="Text" style="text;html=1;align=center;verticalAlign=middle;resizable=0;points=[];autosize=1;strokeColor=none;fillColor=none;fontFamily=Helvetica;fontSize=11;fontColor=default;labelBackgroundColor=default;" vertex="1" parent="-mziDGMkS7ORlLCOw0qk-145">
          <mxGeometry y="30" width="240" height="30" as="geometry" />
        </mxCell>
        <mxCell id="-mziDGMkS7ORlLCOw0qk-147" value="W2053187_Supervised_Session" style="swimlane;fontStyle=0;childLayout=stackLayout;horizontal=1;startSize=30;horizontalStack=0;resizeParent=1;resizeParentMax=0;resizeLast=0;collapsible=1;marginBottom=0;whiteSpace=wrap;html=1;" vertex="1" parent="1">
          <mxGeometry x="1273" y="1821" width="240" height="60" as="geometry" />
        </mxCell>
        <mxCell id="-mziDGMkS7ORlLCOw0qk-148" value="Text" style="text;html=1;align=center;verticalAlign=middle;whiteSpace=wrap;rounded=0;fontFamily=Helvetica;fontSize=11;fontColor=default;labelBackgroundColor=default;" vertex="1" parent="-mziDGMkS7ORlLCOw0qk-147">
          <mxGeometry y="30" width="240" height="30" as="geometry" />
        </mxCell>
        <mxCell id="-mziDGMkS7ORlLCOw0qk-149" value="W2053187_Singles_Session" style="swimlane;fontStyle=0;childLayout=stackLayout;horizontal=1;startSize=30;horizontalStack=0;resizeParent=1;resizeParentMax=0;resizeLast=0;collapsible=1;marginBottom=0;whiteSpace=wrap;html=1;" vertex="1" parent="1">
          <mxGeometry x="815" y="1943" width="173" height="60" as="geometry" />
        </mxCell>
        <mxCell id="-mziDGMkS7ORlLCOw0qk-150" value="Text" style="text;html=1;align=center;verticalAlign=middle;resizable=0;points=[];autosize=1;strokeColor=none;fillColor=none;fontFamily=Helvetica;fontSize=11;fontColor=default;labelBackgroundColor=default;" vertex="1" parent="-mziDGMkS7ORlLCOw0qk-149">
          <mxGeometry y="30" width="173" height="30" as="geometry" />
        </mxCell>
        <mxCell id="-mziDGMkS7ORlLCOw0qk-151" value="W2053187_Doubles_Session" style="swimlane;fontStyle=0;childLayout=stackLayout;horizontal=1;startSize=30;horizontalStack=0;resizeParent=1;resizeParentMax=0;resizeLast=0;collapsible=1;marginBottom=0;whiteSpace=wrap;html=1;" vertex="1" parent="1">
          <mxGeometry x="997" y="1943" width="173" height="60" as="geometry" />
        </mxCell>
        <mxCell id="-mziDGMkS7ORlLCOw0qk-152" value="Text" style="text;html=1;align=center;verticalAlign=middle;whiteSpace=wrap;rounded=0;fontFamily=Helvetica;fontSize=11;fontColor=default;labelBackgroundColor=default;" vertex="1" parent="-mziDGMkS7ORlLCOw0qk-151">
          <mxGeometry y="30" width="173" height="30" as="geometry" />
        </mxCell>
        <mxCell id="-mziDGMkS7ORlLCOw0qk-153" value="W2053187_Personal_Category" style="swimlane;fontStyle=0;childLayout=stackLayout;horizontal=1;startSize=30;horizontalStack=0;resizeParent=1;resizeParentMax=0;resizeLast=0;collapsible=1;marginBottom=0;whiteSpace=wrap;html=1;" vertex="1" parent="1">
          <mxGeometry x="1198" y="1942" width="195" height="60" as="geometry" />
        </mxCell>
        <mxCell id="-mziDGMkS7ORlLCOw0qk-154" value="Text" style="text;html=1;align=center;verticalAlign=middle;whiteSpace=wrap;rounded=0;fontFamily=Helvetica;fontSize=11;fontColor=default;labelBackgroundColor=default;" vertex="1" parent="-mziDGMkS7ORlLCOw0qk-153">
          <mxGeometry y="30" width="195" height="30" as="geometry" />
        </mxCell>
        <mxCell id="-mziDGMkS7ORlLCOw0qk-155" value="W2053187_Group_Category" style="swimlane;fontStyle=0;childLayout=stackLayout;horizontal=1;startSize=30;horizontalStack=0;resizeParent=1;resizeParentMax=0;resizeLast=0;collapsible=1;marginBottom=0;whiteSpace=wrap;html=1;" vertex="1" parent="1">
          <mxGeometry x="1402" y="1942" width="176" height="120" as="geometry" />
        </mxCell>
        <mxCell id="-mziDGMkS7ORlLCOw0qk-156" value="&lt;span style=&quot;font-size: 12px; background-color: rgb(251, 251, 251);&quot;&gt;W2053187_Fitness_Play&lt;/span&gt;" style="text;html=1;align=center;verticalAlign=middle;whiteSpace=wrap;rounded=0;fontFamily=Helvetica;fontSize=11;fontColor=default;labelBackgroundColor=default;" vertex="1" parent="-mziDGMkS7ORlLCOw0qk-155">
          <mxGeometry y="30" width="176" height="30" as="geometry" />
        </mxCell>
        <mxCell id="-mziDGMkS7ORlLCOw0qk-168" value="&lt;span style=&quot;font-size: 12px; background-color: rgb(251, 251, 251);&quot;&gt;W2053187_Group_Coaching&lt;/span&gt;" style="text;html=1;align=center;verticalAlign=middle;whiteSpace=wrap;rounded=0;fontFamily=Helvetica;fontSize=11;fontColor=default;labelBackgroundColor=default;" vertex="1" parent="-mziDGMkS7ORlLCOw0qk-155">
          <mxGeometry y="60" width="176" height="30" as="geometry" />
        </mxCell>
        <mxCell id="-mziDGMkS7ORlLCOw0qk-169" value="&lt;span style=&quot;font-size: 12px; background-color: rgb(251, 251, 251);&quot;&gt;W2053187_Social_Fun&lt;/span&gt;" style="text;html=1;align=center;verticalAlign=middle;whiteSpace=wrap;rounded=0;fontFamily=Helvetica;fontSize=11;fontColor=default;labelBackgroundColor=default;" vertex="1" parent="-mziDGMkS7ORlLCOw0qk-155">
          <mxGeometry y="90" width="176" height="30" as="geometry" />
        </mxCell>
        <mxCell id="-mziDGMkS7ORlLCOw0qk-157" value="" style="endArrow=classic;html=1;rounded=0;strokeColor=default;align=center;verticalAlign=middle;fontFamily=Helvetica;fontSize=11;fontColor=default;labelBackgroundColor=default;curved=1;entryX=0.503;entryY=1.025;entryDx=0;entryDy=0;entryPerimeter=0;" edge="1" parent="1">
          <mxGeometry width="50" height="50" relative="1" as="geometry">
            <mxPoint x="1192" y="1802" as="sourcePoint" />
            <mxPoint x="1191.7199999999998" y="1761.75" as="targetPoint" />
          </mxGeometry>
        </mxCell>
        <mxCell id="-mziDGMkS7ORlLCOw0qk-158" value="" style="endArrow=none;html=1;rounded=0;strokeColor=default;align=center;verticalAlign=middle;fontFamily=Helvetica;fontSize=11;fontColor=default;labelBackgroundColor=default;curved=1;" edge="1" parent="1">
          <mxGeometry width="50" height="50" relative="1" as="geometry">
            <mxPoint x="1393" y="1802" as="sourcePoint" />
            <mxPoint x="993" y="1802" as="targetPoint" />
          </mxGeometry>
        </mxCell>
        <mxCell id="-mziDGMkS7ORlLCOw0qk-159" value="" style="endArrow=none;html=1;rounded=0;strokeColor=default;align=center;verticalAlign=middle;fontFamily=Helvetica;fontSize=11;fontColor=default;labelBackgroundColor=default;curved=1;exitX=0.5;exitY=0;exitDx=0;exitDy=0;" edge="1" source="-mziDGMkS7ORlLCOw0qk-145" parent="1">
          <mxGeometry width="50" height="50" relative="1" as="geometry">
            <mxPoint x="983" y="1802" as="sourcePoint" />
            <mxPoint x="993" y="1802" as="targetPoint" />
          </mxGeometry>
        </mxCell>
        <mxCell id="-mziDGMkS7ORlLCOw0qk-160" value="" style="endArrow=none;html=1;rounded=0;strokeColor=default;align=center;verticalAlign=middle;fontFamily=Helvetica;fontSize=11;fontColor=default;labelBackgroundColor=default;curved=1;exitX=0.5;exitY=0;exitDx=0;exitDy=0;" edge="1" parent="1">
          <mxGeometry width="50" height="50" relative="1" as="geometry">
            <mxPoint x="1393" y="1821" as="sourcePoint" />
            <mxPoint x="1393" y="1802" as="targetPoint" />
          </mxGeometry>
        </mxCell>
        <mxCell id="-mziDGMkS7ORlLCOw0qk-161" value="" style="endArrow=none;html=1;rounded=0;strokeColor=default;align=center;verticalAlign=middle;fontFamily=Helvetica;fontSize=11;fontColor=default;labelBackgroundColor=default;curved=1;" edge="1" parent="1">
          <mxGeometry width="50" height="50" relative="1" as="geometry">
            <mxPoint x="1083" y="1922" as="sourcePoint" />
            <mxPoint x="903" y="1922" as="targetPoint" />
          </mxGeometry>
        </mxCell>
        <mxCell id="-mziDGMkS7ORlLCOw0qk-162" value="" style="endArrow=none;html=1;rounded=0;strokeColor=default;align=center;verticalAlign=middle;fontFamily=Helvetica;fontSize=11;fontColor=default;labelBackgroundColor=default;curved=1;exitX=0.5;exitY=0;exitDx=0;exitDy=0;" edge="1" parent="1">
          <mxGeometry width="50" height="50" relative="1" as="geometry">
            <mxPoint x="1493" y="1941" as="sourcePoint" />
            <mxPoint x="1493" y="1922" as="targetPoint" />
          </mxGeometry>
        </mxCell>
        <mxCell id="-mziDGMkS7ORlLCOw0qk-163" value="" style="endArrow=none;html=1;rounded=0;strokeColor=default;align=center;verticalAlign=middle;fontFamily=Helvetica;fontSize=11;fontColor=default;labelBackgroundColor=default;curved=1;exitX=0.5;exitY=0;exitDx=0;exitDy=0;" edge="1" parent="1">
          <mxGeometry width="50" height="50" relative="1" as="geometry">
            <mxPoint x="1294" y="1941" as="sourcePoint" />
            <mxPoint x="1294" y="1922" as="targetPoint" />
          </mxGeometry>
        </mxCell>
        <mxCell id="-mziDGMkS7ORlLCOw0qk-164" value="" style="endArrow=none;html=1;rounded=0;strokeColor=default;align=center;verticalAlign=middle;fontFamily=Helvetica;fontSize=11;fontColor=default;labelBackgroundColor=default;curved=1;exitX=0.5;exitY=0;exitDx=0;exitDy=0;" edge="1" parent="1">
          <mxGeometry width="50" height="50" relative="1" as="geometry">
            <mxPoint x="1082" y="1942" as="sourcePoint" />
            <mxPoint x="1082" y="1923" as="targetPoint" />
          </mxGeometry>
        </mxCell>
        <mxCell id="-mziDGMkS7ORlLCOw0qk-165" value="" style="endArrow=none;html=1;rounded=0;strokeColor=default;align=center;verticalAlign=middle;fontFamily=Helvetica;fontSize=11;fontColor=default;labelBackgroundColor=default;curved=1;exitX=0.5;exitY=0;exitDx=0;exitDy=0;" edge="1" parent="1">
          <mxGeometry width="50" height="50" relative="1" as="geometry">
            <mxPoint x="904" y="1942" as="sourcePoint" />
            <mxPoint x="904" y="1923" as="targetPoint" />
          </mxGeometry>
        </mxCell>
        <mxCell id="-mziDGMkS7ORlLCOw0qk-166" value="" style="endArrow=none;html=1;rounded=0;strokeColor=default;align=center;verticalAlign=middle;fontFamily=Helvetica;fontSize=11;fontColor=default;labelBackgroundColor=default;curved=1;" edge="1" parent="1">
          <mxGeometry width="50" height="50" relative="1" as="geometry">
            <mxPoint x="1493" y="1922" as="sourcePoint" />
            <mxPoint x="1294" y="1922" as="targetPoint" />
          </mxGeometry>
        </mxCell>
        <mxCell id="-mziDGMkS7ORlLCOw0qk-167" value="" style="endArrow=none;html=1;rounded=0;strokeColor=default;align=center;verticalAlign=middle;fontFamily=Helvetica;fontSize=11;fontColor=default;labelBackgroundColor=default;curved=1;entryX=0.5;entryY=1;entryDx=0;entryDy=0;" edge="1" target="-mziDGMkS7ORlLCOw0qk-148" parent="1">
          <mxGeometry width="50" height="50" relative="1" as="geometry">
            <mxPoint x="1393" y="1922" as="sourcePoint" />
            <mxPoint x="1390" y="1881" as="targetPoint" />
          </mxGeometry>
        </mxCell>
        <mxCell id="-mziDGMkS7ORlLCOw0qk-170" value="" style="endArrow=none;html=1;rounded=0;strokeColor=default;align=center;verticalAlign=middle;fontFamily=Helvetica;fontSize=11;fontColor=default;labelBackgroundColor=default;curved=1;entryX=0.5;entryY=1;entryDx=0;entryDy=0;" edge="1" parent="1">
          <mxGeometry width="50" height="50" relative="1" as="geometry">
            <mxPoint x="993" y="1922" as="sourcePoint" />
            <mxPoint x="993" y="1881" as="targetPoint" />
          </mxGeometry>
        </mxCell>
        <mxCell id="-mziDGMkS7ORlLCOw0qk-171" value="" style="endArrow=none;html=1;rounded=0;strokeColor=default;align=center;verticalAlign=middle;fontFamily=Helvetica;fontSize=11;fontColor=default;labelBackgroundColor=default;curved=1;entryX=0.5;entryY=1;entryDx=0;entryDy=0;" edge="1" parent="1">
          <mxGeometry width="50" height="50" relative="1" as="geometry">
            <mxPoint x="-92.23000000000002" y="1851" as="sourcePoint" />
            <mxPoint x="-92.23000000000002" y="1810" as="targetPoint" />
          </mxGeometry>
        </mxCell>
        <mxCell id="-mziDGMkS7ORlLCOw0qk-172" value="W2053187_Instructor" style="swimlane;fontStyle=0;childLayout=stackLayout;horizontal=1;startSize=30;horizontalStack=0;resizeParent=1;resizeParentMax=0;resizeLast=0;collapsible=1;marginBottom=0;whiteSpace=wrap;html=1;" vertex="1" parent="1">
          <mxGeometry x="637" y="70" width="240" height="120" as="geometry" />
        </mxCell>
        <mxCell id="-mziDGMkS7ORlLCOw0qk-173" value="W2053187_Instructor_ID (PK)" style="text;strokeColor=none;fillColor=none;align=left;verticalAlign=middle;spacingLeft=4;spacingRight=4;overflow=hidden;points=[[0,0.5],[1,0.5]];portConstraint=eastwest;rotatable=0;whiteSpace=wrap;html=1;" vertex="1" parent="-mziDGMkS7ORlLCOw0qk-172">
          <mxGeometry y="30" width="240" height="30" as="geometry" />
        </mxCell>
        <mxCell id="-mziDGMkS7ORlLCOw0qk-174" value="W2053187_Name" style="text;strokeColor=none;fillColor=none;align=left;verticalAlign=middle;spacingLeft=4;spacingRight=4;overflow=hidden;points=[[0,0.5],[1,0.5]];portConstraint=eastwest;rotatable=0;whiteSpace=wrap;html=1;" vertex="1" parent="-mziDGMkS7ORlLCOw0qk-172">
          <mxGeometry y="60" width="240" height="30" as="geometry" />
        </mxCell>
        <mxCell id="-mziDGMkS7ORlLCOw0qk-175" value="W2053187_Specialty" style="text;strokeColor=none;fillColor=none;align=left;verticalAlign=middle;spacingLeft=4;spacingRight=4;overflow=hidden;points=[[0,0.5],[1,0.5]];portConstraint=eastwest;rotatable=0;whiteSpace=wrap;html=1;" vertex="1" parent="-mziDGMkS7ORlLCOw0qk-172">
          <mxGeometry y="90" width="240" height="30" as="geometry" />
        </mxCell>
        <mxCell id="-mziDGMkS7ORlLCOw0qk-176" value="W2053187_Session" style="swimlane;fontStyle=0;childLayout=stackLayout;horizontal=1;startSize=30;horizontalStack=0;resizeParent=1;resizeParentMax=0;resizeLast=0;collapsible=1;marginBottom=0;whiteSpace=wrap;html=1;" vertex="1" parent="1">
          <mxGeometry x="920" y="70" width="240" height="120" as="geometry" />
        </mxCell>
        <mxCell id="-mziDGMkS7ORlLCOw0qk-177" value="W2053187_Session_ID (PK)" style="text;strokeColor=none;fillColor=none;align=left;verticalAlign=middle;spacingLeft=4;spacingRight=4;overflow=hidden;points=[[0,0.5],[1,0.5]];portConstraint=eastwest;rotatable=0;whiteSpace=wrap;html=1;" vertex="1" parent="-mziDGMkS7ORlLCOw0qk-176">
          <mxGeometry y="30" width="240" height="30" as="geometry" />
        </mxCell>
        <mxCell id="-mziDGMkS7ORlLCOw0qk-178" value="W2053187_Session_Type" style="text;strokeColor=none;fillColor=none;align=left;verticalAlign=middle;spacingLeft=4;spacingRight=4;overflow=hidden;points=[[0,0.5],[1,0.5]];portConstraint=eastwest;rotatable=0;whiteSpace=wrap;html=1;" vertex="1" parent="-mziDGMkS7ORlLCOw0qk-176">
          <mxGeometry y="60" width="240" height="30" as="geometry" />
        </mxCell>
        <mxCell id="-mziDGMkS7ORlLCOw0qk-179" value="W2053187_Session_Category" style="text;strokeColor=none;fillColor=none;align=left;verticalAlign=middle;spacingLeft=4;spacingRight=4;overflow=hidden;points=[[0,0.5],[1,0.5]];portConstraint=eastwest;rotatable=0;whiteSpace=wrap;html=1;" vertex="1" parent="-mziDGMkS7ORlLCOw0qk-176">
          <mxGeometry y="90" width="240" height="30" as="geometry" />
        </mxCell>
        <mxCell id="-mziDGMkS7ORlLCOw0qk-182" value="W2053187_Booking" style="swimlane;fontStyle=0;childLayout=stackLayout;horizontal=1;startSize=30;horizontalStack=0;resizeParent=1;resizeParentMax=0;resizeLast=0;collapsible=1;marginBottom=0;whiteSpace=wrap;html=1;" vertex="1" parent="1">
          <mxGeometry x="1225" y="70" width="240" height="180" as="geometry" />
        </mxCell>
        <mxCell id="-mziDGMkS7ORlLCOw0qk-183" value="W2053187_Booking_ID (PK)" style="text;strokeColor=none;fillColor=none;align=left;verticalAlign=middle;spacingLeft=4;spacingRight=4;overflow=hidden;points=[[0,0.5],[1,0.5]];portConstraint=eastwest;rotatable=0;whiteSpace=wrap;html=1;" vertex="1" parent="-mziDGMkS7ORlLCOw0qk-182">
          <mxGeometry y="30" width="240" height="30" as="geometry" />
        </mxCell>
        <mxCell id="-mziDGMkS7ORlLCOw0qk-184" value="W2053187_Booking_Date" style="text;strokeColor=none;fillColor=none;align=left;verticalAlign=middle;spacingLeft=4;spacingRight=4;overflow=hidden;points=[[0,0.5],[1,0.5]];portConstraint=eastwest;rotatable=0;whiteSpace=wrap;html=1;" vertex="1" parent="-mziDGMkS7ORlLCOw0qk-182">
          <mxGeometry y="60" width="240" height="30" as="geometry" />
        </mxCell>
        <mxCell id="-mziDGMkS7ORlLCOw0qk-185" value="W2053187_Start_Time" style="text;strokeColor=none;fillColor=none;align=left;verticalAlign=middle;spacingLeft=4;spacingRight=4;overflow=hidden;points=[[0,0.5],[1,0.5]];portConstraint=eastwest;rotatable=0;whiteSpace=wrap;html=1;" vertex="1" parent="-mziDGMkS7ORlLCOw0qk-182">
          <mxGeometry y="90" width="240" height="30" as="geometry" />
        </mxCell>
        <mxCell id="-mziDGMkS7ORlLCOw0qk-186" value="W2053187_End_Time" style="text;strokeColor=none;fillColor=none;align=left;verticalAlign=middle;spacingLeft=4;spacingRight=4;overflow=hidden;points=[[0,0.5],[1,0.5]];portConstraint=eastwest;rotatable=0;whiteSpace=wrap;html=1;" vertex="1" parent="-mziDGMkS7ORlLCOw0qk-182">
          <mxGeometry y="120" width="240" height="30" as="geometry" />
        </mxCell>
        <mxCell id="-mziDGMkS7ORlLCOw0qk-189" value="W2053187_Session_Type" style="text;strokeColor=none;fillColor=none;align=left;verticalAlign=middle;spacingLeft=4;spacingRight=4;overflow=hidden;points=[[0,0.5],[1,0.5]];portConstraint=eastwest;rotatable=0;whiteSpace=wrap;html=1;" vertex="1" parent="-mziDGMkS7ORlLCOw0qk-182">
          <mxGeometry y="150" width="240" height="30" as="geometry" />
        </mxCell>
        <mxCell id="-mziDGMkS7ORlLCOw0qk-191" value="W2053187_Maintenance_Log" style="swimlane;fontStyle=0;childLayout=stackLayout;horizontal=1;startSize=30;horizontalStack=0;resizeParent=1;resizeParentMax=0;resizeLast=0;collapsible=1;marginBottom=0;whiteSpace=wrap;html=1;" vertex="1" parent="1">
          <mxGeometry x="1510" y="70" width="230" height="180" as="geometry" />
        </mxCell>
        <mxCell id="-mziDGMkS7ORlLCOw0qk-192" value="W2053187_&lt;span style=&quot;text-align: center;&quot;&gt;Maintenance&lt;/span&gt;_ID (PK)" style="text;strokeColor=none;fillColor=none;align=left;verticalAlign=middle;spacingLeft=4;spacingRight=4;overflow=hidden;points=[[0,0.5],[1,0.5]];portConstraint=eastwest;rotatable=0;whiteSpace=wrap;html=1;" vertex="1" parent="-mziDGMkS7ORlLCOw0qk-191">
          <mxGeometry y="30" width="230" height="30" as="geometry" />
        </mxCell>
        <mxCell id="-mziDGMkS7ORlLCOw0qk-193" value="W2053187_Data" style="text;strokeColor=none;fillColor=none;align=left;verticalAlign=middle;spacingLeft=4;spacingRight=4;overflow=hidden;points=[[0,0.5],[1,0.5]];portConstraint=eastwest;rotatable=0;whiteSpace=wrap;html=1;" vertex="1" parent="-mziDGMkS7ORlLCOw0qk-191">
          <mxGeometry y="60" width="230" height="30" as="geometry" />
        </mxCell>
        <mxCell id="-mziDGMkS7ORlLCOw0qk-194" value="W2053187_Time" style="text;strokeColor=none;fillColor=none;align=left;verticalAlign=middle;spacingLeft=4;spacingRight=4;overflow=hidden;points=[[0,0.5],[1,0.5]];portConstraint=eastwest;rotatable=0;whiteSpace=wrap;html=1;" vertex="1" parent="-mziDGMkS7ORlLCOw0qk-191">
          <mxGeometry y="90" width="230" height="30" as="geometry" />
        </mxCell>
        <mxCell id="-mziDGMkS7ORlLCOw0qk-195" value="W2053187_Status" style="text;strokeColor=none;fillColor=none;align=left;verticalAlign=middle;spacingLeft=4;spacingRight=4;overflow=hidden;points=[[0,0.5],[1,0.5]];portConstraint=eastwest;rotatable=0;whiteSpace=wrap;html=1;" vertex="1" parent="-mziDGMkS7ORlLCOw0qk-191">
          <mxGeometry y="120" width="230" height="30" as="geometry" />
        </mxCell>
        <mxCell id="-mziDGMkS7ORlLCOw0qk-196" value="W2053187_Log_Description" style="text;strokeColor=none;fillColor=none;align=left;verticalAlign=middle;spacingLeft=4;spacingRight=4;overflow=hidden;points=[[0,0.5],[1,0.5]];portConstraint=eastwest;rotatable=0;whiteSpace=wrap;html=1;" vertex="1" parent="-mziDGMkS7ORlLCOw0qk-191">
          <mxGeometry y="150" width="230" height="30" as="geometry" />
        </mxCell>
        <mxCell id="-mziDGMkS7ORlLCOw0qk-199" value="W2053187_Court" style="swimlane;fontStyle=0;childLayout=stackLayout;horizontal=1;startSize=30;horizontalStack=0;resizeParent=1;resizeParentMax=0;resizeLast=0;collapsible=1;marginBottom=0;whiteSpace=wrap;html=1;" vertex="1" parent="1">
          <mxGeometry x="1790" y="70" width="230" height="150" as="geometry" />
        </mxCell>
        <mxCell id="-mziDGMkS7ORlLCOw0qk-200" value="W2053187_Court_ID (PK)" style="text;strokeColor=none;fillColor=none;align=left;verticalAlign=middle;spacingLeft=4;spacingRight=4;overflow=hidden;points=[[0,0.5],[1,0.5]];portConstraint=eastwest;rotatable=0;whiteSpace=wrap;html=1;" vertex="1" parent="-mziDGMkS7ORlLCOw0qk-199">
          <mxGeometry y="30" width="230" height="30" as="geometry" />
        </mxCell>
        <mxCell id="-mziDGMkS7ORlLCOw0qk-201" value="W2053187_Court_Type" style="text;strokeColor=none;fillColor=none;align=left;verticalAlign=middle;spacingLeft=4;spacingRight=4;overflow=hidden;points=[[0,0.5],[1,0.5]];portConstraint=eastwest;rotatable=0;whiteSpace=wrap;html=1;" vertex="1" parent="-mziDGMkS7ORlLCOw0qk-199">
          <mxGeometry y="60" width="230" height="30" as="geometry" />
        </mxCell>
        <mxCell id="-mziDGMkS7ORlLCOw0qk-202" value="W2053187_Location" style="text;strokeColor=none;fillColor=none;align=left;verticalAlign=middle;spacingLeft=4;spacingRight=4;overflow=hidden;points=[[0,0.5],[1,0.5]];portConstraint=eastwest;rotatable=0;whiteSpace=wrap;html=1;" vertex="1" parent="-mziDGMkS7ORlLCOw0qk-199">
          <mxGeometry y="90" width="230" height="30" as="geometry" />
        </mxCell>
        <mxCell id="-mziDGMkS7ORlLCOw0qk-203" value="W2053187_Status" style="text;strokeColor=none;fillColor=none;align=left;verticalAlign=middle;spacingLeft=4;spacingRight=4;overflow=hidden;points=[[0,0.5],[1,0.5]];portConstraint=eastwest;rotatable=0;whiteSpace=wrap;html=1;" vertex="1" parent="-mziDGMkS7ORlLCOw0qk-199">
          <mxGeometry y="120" width="230" height="30" as="geometry" />
        </mxCell>
        <mxCell id="-mziDGMkS7ORlLCOw0qk-204" value="W2053187_Block_Booking" style="swimlane;fontStyle=0;childLayout=stackLayout;horizontal=1;startSize=30;horizontalStack=0;resizeParent=1;resizeParentMax=0;resizeLast=0;collapsible=1;marginBottom=0;whiteSpace=wrap;html=1;" vertex="1" parent="1">
          <mxGeometry x="637" y="260" width="230" height="120" as="geometry" />
        </mxCell>
        <mxCell id="-mziDGMkS7ORlLCOw0qk-205" value="W2053187_&lt;span style=&quot;text-align: center;&quot;&gt;Block_Booking&lt;/span&gt;_ID (PK)" style="text;strokeColor=none;fillColor=none;align=left;verticalAlign=middle;spacingLeft=4;spacingRight=4;overflow=hidden;points=[[0,0.5],[1,0.5]];portConstraint=eastwest;rotatable=0;whiteSpace=wrap;html=1;" vertex="1" parent="-mziDGMkS7ORlLCOw0qk-204">
          <mxGeometry y="30" width="230" height="30" as="geometry" />
        </mxCell>
        <mxCell id="-mziDGMkS7ORlLCOw0qk-206" value="W2053187_Start_Date" style="text;strokeColor=none;fillColor=none;align=left;verticalAlign=middle;spacingLeft=4;spacingRight=4;overflow=hidden;points=[[0,0.5],[1,0.5]];portConstraint=eastwest;rotatable=0;whiteSpace=wrap;html=1;" vertex="1" parent="-mziDGMkS7ORlLCOw0qk-204">
          <mxGeometry y="60" width="230" height="30" as="geometry" />
        </mxCell>
        <mxCell id="-mziDGMkS7ORlLCOw0qk-207" value="W2053187_End_Date" style="text;strokeColor=none;fillColor=none;align=left;verticalAlign=middle;spacingLeft=4;spacingRight=4;overflow=hidden;points=[[0,0.5],[1,0.5]];portConstraint=eastwest;rotatable=0;whiteSpace=wrap;html=1;" vertex="1" parent="-mziDGMkS7ORlLCOw0qk-204">
          <mxGeometry y="90" width="230" height="30" as="geometry" />
        </mxCell>
        <mxCell id="-mziDGMkS7ORlLCOw0qk-209" value="W2053187_Player" style="swimlane;fontStyle=0;childLayout=stackLayout;horizontal=1;startSize=30;horizontalStack=0;resizeParent=1;resizeParentMax=0;resizeLast=0;collapsible=1;marginBottom=0;whiteSpace=wrap;html=1;" vertex="1" parent="1">
          <mxGeometry x="925" y="260" width="230" height="120" as="geometry" />
        </mxCell>
        <mxCell id="-mziDGMkS7ORlLCOw0qk-210" value="&lt;div style=&quot;text-align: center;&quot;&gt;&lt;span style=&quot;background-color: initial;&quot;&gt;W2053187_Player&lt;/span&gt;&lt;span style=&quot;background-color: initial;&quot;&gt;_ID (PK)&lt;/span&gt;&lt;/div&gt;" style="text;strokeColor=none;fillColor=none;align=left;verticalAlign=middle;spacingLeft=4;spacingRight=4;overflow=hidden;points=[[0,0.5],[1,0.5]];portConstraint=eastwest;rotatable=0;whiteSpace=wrap;html=1;" vertex="1" parent="-mziDGMkS7ORlLCOw0qk-209">
          <mxGeometry y="30" width="230" height="30" as="geometry" />
        </mxCell>
        <mxCell id="-mziDGMkS7ORlLCOw0qk-211" value="W2053187_Name" style="text;strokeColor=none;fillColor=none;align=left;verticalAlign=middle;spacingLeft=4;spacingRight=4;overflow=hidden;points=[[0,0.5],[1,0.5]];portConstraint=eastwest;rotatable=0;whiteSpace=wrap;html=1;" vertex="1" parent="-mziDGMkS7ORlLCOw0qk-209">
          <mxGeometry y="60" width="230" height="30" as="geometry" />
        </mxCell>
        <mxCell id="-mziDGMkS7ORlLCOw0qk-212" value="W2053187_Contact_Details" style="text;strokeColor=none;fillColor=none;align=left;verticalAlign=middle;spacingLeft=4;spacingRight=4;overflow=hidden;points=[[0,0.5],[1,0.5]];portConstraint=eastwest;rotatable=0;whiteSpace=wrap;html=1;" vertex="1" parent="-mziDGMkS7ORlLCOw0qk-209">
          <mxGeometry y="90" width="230" height="30" as="geometry" />
        </mxCell>
        <mxCell id="-mziDGMkS7ORlLCOw0qk-214" value="W2053187_Park" style="swimlane;fontStyle=0;childLayout=stackLayout;horizontal=1;startSize=30;horizontalStack=0;resizeParent=1;resizeParentMax=0;resizeLast=0;collapsible=1;marginBottom=0;whiteSpace=wrap;html=1;" vertex="1" parent="1">
          <mxGeometry x="1225" y="280" width="230" height="120" as="geometry" />
        </mxCell>
        <mxCell id="-mziDGMkS7ORlLCOw0qk-215" value="&lt;div style=&quot;text-align: center;&quot;&gt;&lt;span style=&quot;background-color: initial;&quot;&gt;W2053187_Park&lt;/span&gt;&lt;span style=&quot;background-color: initial;&quot;&gt;_ID (PK)&lt;/span&gt;&lt;/div&gt;" style="text;strokeColor=none;fillColor=none;align=left;verticalAlign=middle;spacingLeft=4;spacingRight=4;overflow=hidden;points=[[0,0.5],[1,0.5]];portConstraint=eastwest;rotatable=0;whiteSpace=wrap;html=1;" vertex="1" parent="-mziDGMkS7ORlLCOw0qk-214">
          <mxGeometry y="30" width="230" height="30" as="geometry" />
        </mxCell>
        <mxCell id="-mziDGMkS7ORlLCOw0qk-216" value="W2053187_Name" style="text;strokeColor=none;fillColor=none;align=left;verticalAlign=middle;spacingLeft=4;spacingRight=4;overflow=hidden;points=[[0,0.5],[1,0.5]];portConstraint=eastwest;rotatable=0;whiteSpace=wrap;html=1;" vertex="1" parent="-mziDGMkS7ORlLCOw0qk-214">
          <mxGeometry y="60" width="230" height="30" as="geometry" />
        </mxCell>
        <mxCell id="-mziDGMkS7ORlLCOw0qk-217" value="W2053187_Location" style="text;strokeColor=none;fillColor=none;align=left;verticalAlign=middle;spacingLeft=4;spacingRight=4;overflow=hidden;points=[[0,0.5],[1,0.5]];portConstraint=eastwest;rotatable=0;whiteSpace=wrap;html=1;" vertex="1" parent="-mziDGMkS7ORlLCOw0qk-214">
          <mxGeometry y="90" width="230" height="30" as="geometry" />
        </mxCell>
        <mxCell id="-mziDGMkS7ORlLCOw0qk-219" value="W2053187_Caretaker" style="swimlane;fontStyle=0;childLayout=stackLayout;horizontal=1;startSize=30;horizontalStack=0;resizeParent=1;resizeParentMax=0;resizeLast=0;collapsible=1;marginBottom=0;whiteSpace=wrap;html=1;" vertex="1" parent="1">
          <mxGeometry x="1510" y="280" width="230" height="120" as="geometry" />
        </mxCell>
        <mxCell id="-mziDGMkS7ORlLCOw0qk-220" value="&lt;div style=&quot;text-align: center;&quot;&gt;&lt;span style=&quot;background-color: initial;&quot;&gt;W2053187_Caretaker&lt;/span&gt;&lt;span style=&quot;background-color: initial;&quot;&gt;_ID (PK)&lt;/span&gt;&lt;/div&gt;" style="text;strokeColor=none;fillColor=none;align=left;verticalAlign=middle;spacingLeft=4;spacingRight=4;overflow=hidden;points=[[0,0.5],[1,0.5]];portConstraint=eastwest;rotatable=0;whiteSpace=wrap;html=1;" vertex="1" parent="-mziDGMkS7ORlLCOw0qk-219">
          <mxGeometry y="30" width="230" height="30" as="geometry" />
        </mxCell>
        <mxCell id="-mziDGMkS7ORlLCOw0qk-221" value="W2053187_Name" style="text;strokeColor=none;fillColor=none;align=left;verticalAlign=middle;spacingLeft=4;spacingRight=4;overflow=hidden;points=[[0,0.5],[1,0.5]];portConstraint=eastwest;rotatable=0;whiteSpace=wrap;html=1;" vertex="1" parent="-mziDGMkS7ORlLCOw0qk-219">
          <mxGeometry y="60" width="230" height="30" as="geometry" />
        </mxCell>
        <mxCell id="-mziDGMkS7ORlLCOw0qk-222" value="W2053187_Assigned_Area (FK)" style="text;strokeColor=none;fillColor=none;align=left;verticalAlign=middle;spacingLeft=4;spacingRight=4;overflow=hidden;points=[[0,0.5],[1,0.5]];portConstraint=eastwest;rotatable=0;whiteSpace=wrap;html=1;" vertex="1" parent="-mziDGMkS7ORlLCOw0qk-219">
          <mxGeometry y="90" width="230" height="30" as="geometry" />
        </mxCell>
      </root>
    </mxGraphModel>
  </diagram>
</mxfile>
